# File created by Blade
# Date/Time:  Wed Apr 08 14:47:20 2015
# Frame Rate: 120.000 fps
#------------------------------------------------------
:FULLY-SPECIFIED
:DEGREES
3094
root 4.767364 32.817449 -2.224888 13.383743 0.259761 -0.301378
Spine -14.968902 -5.351099 -1.460311
Head 11.050277 -3.929989 1.192211
LeftShoulder -22.233106 40.992883 20.503308
LeftArm 56.747110 -56.807959 -58.448329
LeftForeArm 10.809242 -0.000000 -2.341236
LeftHand 4.910930 -0.000000 6.558378
LeftHandThumb1 -26.253704 0.000000 33.147579
RightShoulder -8.557177 2.239962 -31.734544
RightArm 13.045205 13.005745 36.798872
RightForeArm -11.324501 -0.000000 -0.741068
RightHand 2.781391 -0.000000 0.435953
RightHandThumb1 -24.326973 -0.000000 -32.862282
LeftUpLeg -5.157426 -14.169639 3.296028
LeftLeg -8.152883 -0.000000 0.000000
LeftFoot -4.498061 20.981905 -16.293284
LeftToeBase 1.138019 -0.000000 -0.000000
RightUpLeg -4.867677 6.575852 1.338894
RightLeg -9.661332 -0.000000 0.000000
RightFoot -1.311428 -18.386176 4.516304
RightToeBase -1.193641 -0.000000 0.000000
3095
root 4.771438 32.817623 -2.221732 13.381818 0.282146 -0.305772
Spine -14.963501 -5.367159 -1.441867
Head 11.043364 -3.890067 1.151832
LeftShoulder -22.216610 41.013544 20.515165
LeftArm 56.756541 -56.753946 -58.489685
LeftForeArm 10.779267 -0.000000 -2.432839
LeftHand 4.910377 -0.000000 6.469888
LeftHandThumb1 -26.253704 0.000000 33.147579
RightShoulder -8.531731 2.265178 -31.729974
RightArm 13.020201 12.972156 36.806391
RightForeArm -11.315999 -0.000000 -0.747629
RightHand 2.806449 0.000000 0.454975
RightHandThumb1 -24.326973 -0.000000 -32.862282
LeftUpLeg -5.148729 -14.164008 3.293895
LeftLeg -8.159244 -0.000000 0.000000
LeftFoot -4.479857 20.922949 -16.400394
LeftToeBase 0.959224 -0.000000 -0.000000
RightUpLeg -4.861184 6.538880 1.347594
RightLeg -9.657744 -0.000000 0.000000
RightFoot -1.307222 -18.382785 4.498406
RightToeBase -1.220847 -0.000000 0.000000
3096
root 4.777011 32.818250 -2.218380 13.385074 0.302825 -0.310068
Spine -14.962810 -5.382126 -1.416739
Head 11.026745 -3.843708 1.110681
LeftShoulder -22.208613 41.026508 20.514091
LeftArm 56.880685 -56.772759 -58.721417
LeftForeArm 10.868445 -0.000000 -2.429569
LeftHand 4.830983 0.000000 6.394663
LeftHandThumb1 -26.253704 0.000000 33.147579
RightShoulder -8.540567 2.229502 -31.720502
RightArm 13.097011 12.973384 36.826420
RightForeArm -11.311876 -0.000000 -0.792862
RightHand 2.806513 -0.000000 0.495559
RightHandThumb1 -24.326973 -0.000000 -32.862282
LeftUpLeg -5.154173 -14.100565 3.279385
LeftLeg -8.141114 -0.000000 0.000000
LeftFoot -4.466842 20.867480 -16.275856
LeftToeBase 1.107091 -0.000000 -0.000000
RightUpLeg -4.840546 6.569548 1.336065
RightLeg -9.694196 -0.000000 0.000000
RightFoot -1.286235 -18.427813 4.538434
RightToeBase -1.224520 -0.000000 0.000000
3097
root 4.782295 32.818990 -2.215445 13.386098 0.323814 -0.312748
Spine -14.963080 -5.383604 -1.399468
Head 11.028275 -3.817055 1.065829
LeftShoulder -22.211468 41.069438 20.511953
LeftArm 56.976566 -56.748187 -58.872146
LeftForeArm 10.864974 -0.000000 -2.415188
LeftHand 4.756408 -0.000000 6.184044
LeftHandThumb1 -26.253704 0.000000 33.147579
RightShoulder -8.546655 2.323756 -31.708160
RightArm 13.057664 12.898215 36.782861
RightForeArm -11.338134 -0.000000 -0.795578
RightHand 2.868282 -0.000000 0.354098
RightHandThumb1 -24.326973 -0.000000 -32.862282
LeftUpLeg -5.155348 -14.067145 3.271976
LeftLeg -8.135165 -0.000000 0.000000
LeftFoot -4.448331 20.814661 -16.266956
LeftToeBase 1.080097 -0.000000 -0.000000
RightUpLeg -4.840197 6.557259 1.335274
RightLeg -9.684451 -0.000000 0.000000
RightFoot -1.281278 -18.444615 4.521070
RightToeBase -1.244533 -0.000000 0.000000
3098
root 4.787761 32.819949 -2.212514 13.390254 0.347190 -0.318653
Spine -14.966422 -5.392447 -1.375146
Head 11.024180 -3.792589 1.021446
LeftShoulder -22.178044 41.073900 20.519299
LeftArm 57.026157 -56.761212 -58.980294
LeftForeArm 10.900061 -0.000000 -2.439762
LeftHand 4.748142 0.000000 6.036074
LeftHandThumb1 -26.253704 0.000000 33.147579
RightShoulder -8.536615 2.361207 -31.710021
RightArm 13.033936 12.856991 36.757205
RightForeArm -11.341447 0.000000 -0.795160
RightHand 2.859662 -0.000000 0.392441
RightHandThumb1 -24.326973 -0.000000 -32.862282
LeftUpLeg -5.151424 -14.039894 3.267409
LeftLeg -8.144685 -0.000000 0.000000
LeftFoot -4.415224 20.735748 -16.364994
LeftToeBase 0.899830 -0.000000 -0.000000
RightUpLeg -4.837205 6.550838 1.335526
RightLeg -9.686997 -0.000000 0.000000
RightFoot -1.279368 -18.469732 4.525806
RightToeBase -1.245910 -0.000000 0.000000
3099
root 4.793397 32.820293 -2.209115 13.401090 0.374740 -0.333215
Spine -14.977501 -5.405305 -1.331922
Head 11.011950 -3.752236 0.969287
LeftShoulder -22.175291 41.078084 20.501820
LeftArm 57.025982 -56.727056 -58.997717
LeftForeArm 10.936746 -0.000000 -2.470782
LeftHand 4.704137 -0.000000 5.956739
LeftHandThumb1 -26.253704 0.000000 33.147579
RightShoulder -8.524819 2.397377 -31.738841
RightArm 13.010464 12.854728 36.750758
RightForeArm -11.397686 -0.000000 -0.802074
RightHand 2.901445 -0.000000 0.391001
RightHandThumb1 -24.326973 -0.000000 -32.862282
LeftUpLeg -5.133267 -14.086507 3.282469
LeftLeg -8.205791 -0.000000 0.000000
LeftFoot -4.387690 20.799166 -16.255014
LeftToeBase 1.063140 -0.000000 -0.000000
RightUpLeg -4.844371 6.519153 1.348678
RightLeg -9.676732 -0.000000 0.000000
RightFoot -1.283116 -18.470175 4.515981
RightToeBase -1.219207 -0.000000 0.000000
3100
root 4.800147 32.820879 -2.205981 13.409986 0.406728 -0.338525
Spine -14.986301 -5.436536 -1.291401
Head 11.013139 -3.709797 0.907466
LeftShoulder -22.185922 41.093354 20.467365
LeftArm 57.004345 -56.703174 -58.989663
LeftForeArm 10.932555 -0.000000 -2.486421
LeftHand 4.694175 -0.000000 5.913457
LeftHandThumb1 -26.253704 0.000000 33.147579
RightShoulder -8.513200 2.415286 -31.758925
RightArm 13.010744 12.872670 36.731538
RightForeArm -11.469536 -0.000000 -0.794853
RightHand 2.871660 -0.000000 0.454816
RightHandThumb1 -24.326973 -0.000000 -32.862282
LeftUpLeg -5.145903 -14.016187 3.270095
LeftLeg -8.188988 -0.000000 0.000000
LeftFoot -4.368860 20.671513 -16.371119
LeftToeBase 0.886422 -0.000000 -0.000000
RightUpLeg -4.846398 6.501298 1.347967
RightLeg -9.677061 -0.000000 0.000000
RightFoot -1.280090 -18.486616 4.522408
RightToeBase -1.247766 -0.000000 0.000000
3101
root 4.807920 32.822086 -2.202860 13.428240 0.427272 -0.331703
Spine -15.004851 -5.449374 -1.273850
Head 11.004001 -3.667201 0.880266
LeftShoulder -22.182393 41.077022 20.466742
LeftArm 56.894664 -56.638689 -58.900867
LeftForeArm 10.874350 -0.000000 -2.475636
LeftHand 4.686949 -0.000000 5.902863
LeftHandThumb1 -26.253704 0.000000 33.147579
RightShoulder -8.515007 2.437200 -31.779925
RightArm 13.009578 12.903749 36.715171
RightForeArm -11.458257 0.000000 -0.792048
RightHand 2.899626 -0.000000 0.464923
RightHandThumb1 -24.326973 -0.000000 -32.862282
LeftUpLeg -5.183157 -13.908417 3.239640
LeftLeg -8.137033 -0.000000 0.000000
LeftFoot -4.353925 20.568308 -16.235724
LeftToeBase 1.036559 -0.000000 -0.000000
RightUpLeg -4.867827 6.455503 1.336826
RightLeg -9.657406 -0.000000 0.000000
RightFoot -1.287763 -18.476699 4.539235
RightToeBase -1.307739 -0.000000 0.000000
3102
root 4.812850 32.822435 -2.199629 13.436834 0.455407 -0.353927
Spine -15.013120 -5.470561 -1.219390
Head 10.998391 -3.653254 0.823617
LeftShoulder -22.187873 41.074229 20.436727
LeftArm 56.844799 -56.624015 -58.855627
LeftForeArm 10.882433 -0.000000 -2.478790
LeftHand 4.694807 -0.000000 5.886635
LeftHandThumb1 -26.253704 0.000000 33.147579
RightShoulder -8.487157 2.487386 -31.813132
RightArm 12.958260 12.891342 36.669581
RightForeArm -11.477242 0.000000 -0.774911
RightHand 2.844020 0.000000 0.493527
RightHandThumb1 -24.326973 -0.000000 -32.862282
LeftUpLeg -5.145025 -13.974754 3.267931
LeftLeg -8.237008 -0.000000 0.000000
LeftFoot -4.314290 20.626870 -16.231955
LeftToeBase 1.086716 -0.000000 -0.000000
RightUpLeg -4.876787 6.438261 1.359443
RightLeg -9.640085 -0.000000 0.000000
RightFoot -1.296302 -18.510588 4.518265
RightToeBase -1.264803 -0.000000 0.000000
